<svg width="19" height="24" viewBox="0 0 19 24" fill="none" xmlns="http://www.w3.org/2000/svg">
<path d="M16.6833 7.73355C16.15 7.04923 15.0798 7.15152 14.6767 7.92484C14.6483 7.97971 14.6168 8.03458 14.5844 8.08694C14.4004 8.38097 13.941 8.2892 13.8857 7.94699C13.666 6.59134 13.1744 5.45316 12.4245 4.56265C12.1054 4.18359 11.7776 3.91276 11.4879 3.67314C11.0248 3.2896 10.1643 2.64963 10.0339 1.07958C9.94486 0.0180683 8.60067 -0.377301 7.92223 0.427683C6.41522 2.21958 5.3763 4.42421 5.05108 7.79945C5.01486 8.16859 4.51262 8.27456 4.33977 7.94996C3.89674 7.10113 2.83007 7.07627 2.31896 7.73048C-1.08999 12.104 -0.694247 18.3925 3.20125 21.7481C6.68752 24.7509 12.3133 24.7504 15.799 21.7481C19.6935 18.3935 20.0897 12.1066 16.6833 7.73355ZM9.64278 20.3216C8.31396 20.3216 7.03105 19.7488 6.27747 18.9093C5.15839 17.6627 5.31846 16.0107 5.38675 15.3053C5.52506 13.878 6.14363 12.5376 7.22532 11.3214C7.9448 10.5123 9.27992 11.1731 9.06708 12.2323C8.88245 13.1511 8.99798 13.8922 9.39235 14.3192C9.46236 14.395 9.83756 14.7715 10.3169 14.7581C10.7161 14.7463 11.123 14.4724 11.4332 14.0066C11.8801 13.3357 12.8781 13.3757 13.2606 14.0785C14.7466 16.8088 12.9815 20.3214 9.64278 20.3216Z" fill="#F48628"/>
</svg>
