<svg width="26" height="24" viewBox="0 0 26 24" fill="none" xmlns="http://www.w3.org/2000/svg">
<path fill-rule="evenodd" clip-rule="evenodd" d="M23.5814 22.1307H25.093C25.3336 22.1307 25.5643 22.2291 25.7344 22.4044C25.9044 22.5797 26 22.8174 26 23.0653C26 23.3132 25.9044 23.551 25.7344 23.7262C25.5643 23.9015 25.3336 24 25.093 24H0.906977C0.666432 24 0.435738 23.9015 0.265647 23.7262C0.0955562 23.551 0 23.3132 0 23.0653C0 22.8174 0.0955562 22.5797 0.265647 22.4044C0.435738 22.2291 0.666432 22.1307 0.906977 22.1307H2.41861V11.3271C2.54128 11.2676 2.65794 11.1958 2.76688 11.1127L13 3.34249L23.2331 11.1127C23.3421 11.1958 23.4587 11.2676 23.5814 11.3271V22.1307ZM17.8372 22.1307V13.0955C17.8372 11.8904 16.8891 10.9146 15.7209 10.9146H10.2791C9.11088 10.9146 8.16279 11.8904 8.16279 13.0955V22.1307H9.97675V13.0955C9.97675 13.0129 10.0086 12.9336 10.0653 12.8752C10.122 12.8168 10.1989 12.7839 10.2791 12.7839H15.7209C15.8011 12.7839 15.878 12.8168 15.9347 12.8752C15.9914 12.9336 16.0233 13.0129 16.0233 13.0955V22.1307H17.8372Z" fill="#F48628"/>
<path d="M12.821 1.93051L2.04977 10.1095C1.85585 10.256 1.61353 10.3174 1.3758 10.2803C1.13807 10.2432 0.924285 10.1105 0.781209 9.91137C0.639045 9.71153 0.579463 9.46181 0.615496 9.21682C0.65153 8.97183 0.780245 8.75152 0.973488 8.60407L11.7447 0.425064C12.1084 0.14895 12.5483 0 13 0C13.4517 0 13.8916 0.14895 14.2553 0.425064L19.3488 4.29281V1.87941C19.3488 1.63152 19.4444 1.39379 19.6145 1.2185C19.7846 1.04322 20.0153 0.944742 20.2558 0.944742C20.4964 0.944742 20.7271 1.04322 20.8971 1.2185C21.0672 1.39379 21.1628 1.63152 21.1628 1.87941V5.6181C21.1628 5.63518 21.1623 5.65222 21.1614 5.66918L25.0265 8.60407C25.2198 8.75152 25.3485 8.97183 25.3845 9.21682C25.4205 9.46181 25.361 9.71153 25.2188 9.91137C25.0757 10.1105 24.8619 10.2432 24.6242 10.2803C24.3865 10.3174 24.1441 10.256 23.9502 10.1095L13.179 1.93051C13.1272 1.89104 13.0644 1.86975 13 1.86975C12.9356 1.86975 12.8728 1.89104 12.821 1.93051Z" fill="#F48628"/>
</svg>
