<svg width="22" height="24" viewBox="0 0 22 24" fill="none" xmlns="http://www.w3.org/2000/svg">
<path d="M13.3158 14.8571H8.68421C6.38177 14.8596 4.17433 15.7634 2.54625 17.3703C0.91818 18.9773 0.00245202 21.156 0 23.4286C0 23.5801 0.0609962 23.7255 0.16957 23.8326C0.278144 23.9398 0.425401 24 0.578947 24H21.4211C21.5746 24 21.7219 23.9398 21.8304 23.8326C21.939 23.7255 22 23.5801 22 23.4286C21.9975 21.156 21.0818 18.9773 19.4537 17.3703C17.8257 15.7634 15.6182 14.8596 13.3158 14.8571Z" fill="#F48628"/>
<path d="M11 12.5714C14.5172 12.5714 17.3684 9.75722 17.3684 6.28571C17.3684 2.81421 14.5172 0 11 0C7.48282 0 4.63158 2.81421 4.63158 6.28571C4.63158 9.75722 7.48282 12.5714 11 12.5714Z" fill="#F48628"/>
</svg>
