<svg xmlns="http://www.w3.org/2000/svg">
     <symbol id="quastion__arrow" viewBox="0 0 16 11" fill="none">
        <path d="M1 1L8 9L15 1" stroke-width="2"/>
    </symbol>
     <symbol id="rud--slider__prev" viewBox="0 0 15 26" fill="none">
        <path d="M14 1L2 13L14 25"  stroke-width="2"/>
    </symbol> 
    <symbol id="rud--man" viewBox="0 0 22 24" fill="none">
        <path d="M13.3158 14.8571H8.68421C6.38177 14.8596 4.17433 15.7634 2.54625 17.3703C0.91818 18.9773 0.00245202 21.156 0 23.4286C0 23.5801 0.0609962 23.7255 0.16957 23.8326C0.278144 23.9398 0.425401 24 0.578947 24H21.4211C21.5746 24 21.7219 23.9398 21.8304 23.8326C21.939 23.7255 22 23.5801 22 23.4286C21.9975 21.156 21.0818 18.9773 19.4537 17.3703C17.8257 15.7634 15.6182 14.8596 13.3158 14.8571Z"/>
        <path d="M11 12.5714C14.5172 12.5714 17.3684 9.75722 17.3684 6.28571C17.3684 2.81421 14.5172 0 11 0C7.48282 0 4.63158 2.81421 4.63158 6.28571C4.63158 9.75722 7.48282 12.5714 11 12.5714Z"/>
    </symbol>
    <symbol id="rud--time" viewBox="0 0 18 24">
        <path d="M12.7225 9.50639C14.2893 8.05566 16.408 6.09361 16.6011 1.40625H18V0H0V1.40625H1.39888C1.59198 6.09361 3.71072 8.05566 5.27746 9.50639C6.32843 10.4796 6.92308 11.0752 6.92308 12C6.92308 12.9248 6.32843 13.5204 5.27746 14.4936C3.71072 15.9443 1.59198 17.9064 1.39888 22.5938H0V24H18V22.5938H16.6011C16.408 17.9064 14.2893 15.9443 12.7225 14.4936C11.6716 13.5204 11.0769 12.9248 11.0769 12C11.0769 11.0752 11.6716 10.4796 12.7225 9.50639ZM8.30769 17.2705C8.09165 17.3157 7.88029 17.3816 7.67645 17.4672L3.43597 19.2493C4.12846 17.461 5.24382 16.4278 6.21032 15.5328C7.28894 14.5341 8.30769 13.5907 8.30769 12V17.2705ZM11.7897 15.5328C12.7562 16.4278 13.8715 17.461 14.564 19.2493L10.3236 17.4671C10.1197 17.3815 9.90835 17.3157 9.69231 17.2705V12C9.69231 13.5907 10.7111 14.5341 11.7897 15.5328ZM3.41165 4.6875C3.07689 3.80161 2.84571 2.73197 2.7852 1.40625H15.2148C15.1542 2.73197 14.9231 3.80161 14.5883 4.6875H3.41165Z"/>
    </symbol>
</svg>
