<svg width="18" height="24" viewBox="0 0 18 24" fill="none" xmlns="http://www.w3.org/2000/svg">
<path d="M12.7225 9.50639C14.2893 8.05566 16.408 6.09361 16.6011 1.40625H18V0H0V1.40625H1.39888C1.59198 6.09361 3.71072 8.05566 5.27746 9.50639C6.32843 10.4796 6.92308 11.0752 6.92308 12C6.92308 12.9248 6.32843 13.5204 5.27746 14.4936C3.71072 15.9443 1.59198 17.9064 1.39888 22.5938H0V24H18V22.5938H16.6011C16.408 17.9064 14.2893 15.9443 12.7225 14.4936C11.6716 13.5204 11.0769 12.9248 11.0769 12C11.0769 11.0752 11.6716 10.4796 12.7225 9.50639ZM8.30769 17.2705C8.09165 17.3157 7.88029 17.3816 7.67645 17.4672L3.43597 19.2493C4.12846 17.461 5.24382 16.4278 6.21032 15.5328C7.28894 14.5341 8.30769 13.5907 8.30769 12V17.2705ZM11.7897 15.5328C12.7562 16.4278 13.8715 17.461 14.564 19.2493L10.3236 17.4671C10.1197 17.3815 9.90835 17.3157 9.69231 17.2705V12C9.69231 13.5907 10.7111 14.5341 11.7897 15.5328ZM3.41165 4.6875C3.07689 3.80161 2.84571 2.73197 2.7852 1.40625H15.2148C15.1542 2.73197 14.9231 3.80161 14.5883 4.6875H3.41165Z" fill="#F48628"/>
</svg>
